<svg xmlns="http://www.w3.org/2000/svg" viewBox="0 0 64 64" width="64" height="64">
    <defs>
        <linearGradient id="brand" x1="0" y1="0" x2="1" y2="1">
            <stop offset="0%" stop-color="#8b5cf6" />
            <stop offset="60%" stop-color="#ec4899" />
            <stop offset="100%" stop-color="#fb7185" />
        </linearGradient>
    </defs>

    <rect x="4" y="4" width="56" height="56" rx="18" fill="url(#brand)" />

    <g transform="translate(15.5, 15.5)" fill="none" stroke="#ffffff" stroke-width="2.6" stroke-linecap="round" stroke-linejoin="round">
        <rect x="1.5" y="10.5" width="30" height="7" rx="1.6" />
        <path d="M17 10.5v22" />
        <path d="M28.5 17.5v11.5a3.2 3.2 0 0 1-3.2 3.2H7.7a3.2 3.2 0 0 1-3.2-3.2V17.5" />
        <path d="M10 10.5a4.2 4.2 0 0 1 0-8.4c5.5 0 7 8.4 7 8.4" />
        <path d="M24 10.5a4.2 4.2 0 0 0 0-8.4c-5.5 0-7 8.4-7 8.4" />
    </g>

    <path d="M50 12 l1.6 4 4 1.6 -4 1.6 -1.6 4 -1.6-4 -4-1.6 4-1.6z" fill="#fbbf24" />
</svg>
